<?xml version="1.0" encoding="utf-8" standalone="yes"?> <svg width="1000" height="1000" viewBox="-1 -1 31 31" xmlns="http://www.w3.org/2000/svg" shape-rendering="crispEdges" id="qr code"><rect id="qr background" fill-opacity="1" fill="rgb(255, 255, 255)" x="-1" y="-1" width="31" height="31"></rect><path fill-opacity="1" fill="rgb(0, 0, 0)" id="qr dark pixels" fill-rule="evenodd" d="M 10 0 L 11 0 L 11 2 L 10 2 z M 12 0 L 16 0 L 16 1 L 19 1 L 19 2 L 16 2 L 16 4 L 19 4 L 19 7 L 18 7 L 18 6 L 17 6 L 17 5 L 15 5 L 15 4 L 14 4 L 14 3 L 15 3 L 15 2 L 14 2 L 14 3 L 13 3 L 13 4 L 12 4 L 12 2 L 13 2 L 13 1 L 12 1 z M 19 0 L 21 0 L 21 1 L 19 1 z M 8 1 L 9 1 L 9 2 L 8 2 z M 19 2 L 20 2 L 20 3 L 21 3 L 21 5 L 20 5 L 20 4 L 19 4 z M 8 3 L 11 3 L 11 4 L 10 4 L 10 6 L 9 6 L 9 7 L 8 7 L 8 5 L 9 5 L 9 4 L 8 4 z M 11 5 L 13 5 L 13 7 L 12 7 L 12 6 L 11 6 z M 10 6 L 11 6 L 11 7 L 12 7 L 12 9 L 11 9 L 11 8 L 10 8 L 10 9 L 9 9 L 9 12 L 11 12 L 11 13 L 8 13 L 8 10 L 7 10 L 7 9 L 6 9 L 6 8 L 9 8 L 9 7 L 10 7 z M 14 6 L 15 6 L 15 8 L 14 8 z M 16 6 L 17 6 L 17 8 L 16 8 z M 20 6 L 21 6 L 21 7 L 20 7 z M 0 8 L 5 8 L 5 9 L 4 9 L 4 10 L 5 10 L 5 12 L 7 12 L 7 13 L 5 13 L 5 14 L 10 14 L 10 15 L 8 15 L 8 16 L 7 16 L 7 15 L 6 15 L 6 16 L 5 16 L 5 15 L 4 15 L 4 12 L 3 12 L 3 9 L 2 9 L 2 10 L 1 10 L 1 11 L 0 11 z M 19 8 L 20 8 L 20 9 L 19 9 z M 21 8 L 22 8 L 22 9 L 23 9 L 23 8 L 24 8 L 24 9 L 25 9 L 25 8 L 26 8 L 26 10 L 25 10 L 25 11 L 26 11 L 26 12 L 25 12 L 25 13 L 26 13 L 26 12 L 27 12 L 27 11 L 29 11 L 29 12 L 28 12 L 28 14 L 27 14 L 27 15 L 26 15 L 26 14 L 24 14 L 24 15 L 23 15 L 23 13 L 24 13 L 24 11 L 21 11 L 21 10 L 20 10 L 20 9 L 21 9 z M 27 8 L 28 8 L 28 9 L 29 9 L 29 10 L 27 10 z M 10 9 L 11 9 L 11 11 L 10 11 z M 12 9 L 16 9 L 16 11 L 14 11 L 14 12 L 13 12 L 13 13 L 12 13 L 12 11 L 13 11 L 13 10 L 12 10 z M 6 10 L 7 10 L 7 11 L 6 11 z M 18 10 L 19 10 L 19 11 L 18 11 z M 26 10 L 27 10 L 27 11 L 26 11 z M 16 11 L 17 11 L 17 12 L 16 12 z M 19 11 L 21 11 L 21 12 L 19 12 z M 1 12 L 3 12 L 3 14 L 2 14 L 2 13 L 1 13 z M 14 12 L 16 12 L 16 13 L 17 13 L 17 12 L 18 12 L 18 13 L 21 13 L 21 15 L 20 15 L 20 14 L 19 14 L 19 15 L 15 15 L 15 13 L 14 13 z M 0 13 L 1 13 L 1 14 L 0 14 z M 1 14 L 2 14 L 2 15 L 1 15 z M 11 14 L 13 14 L 13 15 L 12 15 L 12 17 L 10 17 L 10 15 L 11 15 z M 3 15 L 4 15 L 4 16 L 5 16 L 5 20 L 4 20 L 4 21 L 3 21 L 3 19 L 2 19 L 2 18 L 4 18 L 4 17 L 1 17 L 1 16 L 3 16 z M 14 15 L 15 15 L 15 16 L 14 16 z M 19 15 L 20 15 L 20 17 L 19 17 z M 21 15 L 22 15 L 22 16 L 21 16 z M 24 15 L 26 15 L 26 16 L 27 16 L 27 17 L 28 17 L 28 18 L 26 18 L 26 17 L 25 17 L 25 16 L 24 16 z M 27 15 L 28 15 L 28 16 L 27 16 z M 6 16 L 7 16 L 7 17 L 6 17 z M 8 16 L 9 16 L 9 17 L 8 17 z M 15 16 L 18 16 L 18 18 L 16 18 L 16 19 L 14 19 L 14 20 L 13 20 L 13 21 L 12 21 L 12 19 L 13 19 L 13 18 L 12 18 L 12 17 L 15 17 z M 23 16 L 24 16 L 24 17 L 25 17 L 25 19 L 24 19 L 24 20 L 19 20 L 19 21 L 14 21 L 14 20 L 16 20 L 16 19 L 17 19 L 17 20 L 18 20 L 18 18 L 19 18 L 19 19 L 22 19 L 22 18 L 23 18 z M 28 16 L 29 16 L 29 17 L 28 17 z M 0 17 L 1 17 L 1 21 L 0 21 z M 7 17 L 8 17 L 8 18 L 7 18 z M 20 17 L 22 17 L 22 18 L 20 18 z M 6 18 L 7 18 L 7 19 L 6 19 z M 8 18 L 10 18 L 10 19 L 11 19 L 11 22 L 13 22 L 13 23 L 12 23 L 12 25 L 10 25 L 10 24 L 9 24 L 9 23 L 8 23 L 8 21 L 9 21 L 9 22 L 10 22 L 10 20 L 9 20 L 9 19 L 8 19 z M 7 19 L 8 19 L 8 21 L 6 21 L 6 20 L 7 20 z M 25 19 L 26 19 L 26 20 L 25 20 z M 28 19 L 29 19 L 29 20 L 28 20 z M 27 20 L 28 20 L 28 21 L 27 21 z M 19 21 L 20 21 L 20 22 L 19 22 z M 25 21 L 26 21 L 26 22 L 25 22 z M 28 21 L 29 21 L 29 22 L 28 22 z M 15 22 L 16 22 L 16 23 L 15 23 z M 17 22 L 19 22 L 19 23 L 17 23 z M 27 22 L 28 22 L 28 23 L 29 23 L 29 24 L 28 24 L 28 25 L 29 25 L 29 26 L 28 26 L 28 28 L 27 28 L 27 27 L 26 27 L 26 28 L 25 28 L 25 29 L 22 29 L 22 28 L 23 28 L 23 27 L 21 27 L 21 26 L 27 26 L 27 25 L 25 25 L 25 24 L 27 24 z M 14 23 L 15 23 L 15 24 L 14 24 z M 19 23 L 20 23 L 20 24 L 19 24 z M 8 24 L 9 24 L 9 26 L 11 26 L 11 27 L 9 27 L 9 28 L 11 28 L 11 29 L 8 29 z M 16 24 L 17 24 L 17 25 L 18 25 L 18 26 L 16 26 L 16 27 L 14 27 L 14 28 L 13 28 L 13 29 L 12 29 L 12 27 L 13 27 L 13 26 L 12 26 L 12 25 L 16 25 z M 19 25 L 20 25 L 20 27 L 21 27 L 21 28 L 20 28 L 20 29 L 19 29 L 19 27 L 18 27 L 18 26 L 19 26 z M 14 28 L 15 28 L 15 29 L 14 29 z M 17 28 L 18 28 L 18 29 L 17 29 z"></path><path id="qr squares" d="M0,0h7h0v0v7v0h0h-7h0v0v-7v0h0zM1,1h5h0v0v5v0h0h-5h0v0v-5v0h0zM2,2h3h0v0v3v0h0h-3h0v0v-3v0h0z M22,0h7h0v0v7v0h0h-7h0v0v-7v0h0zM23,1h5h0v0v5v0h0h-5h0v0v-5v0h0zM24,2h3h0v0v3v0h0h-3h0v0v-3v0h0z M0,22h7h0v0v7v0h0h-7h0v0v-7v0h0zM1,23h5h0v0v5v0h0h-5h0v0v-5v0h0zM2,24h3h0v0v3v0h0h-3h0v0v-3v0h0zM20,20h5h0v0v5v0h0h-5h0v0v-5v0h0zM21,21h3h0v0v3v0h0h-3h0v0v-3v0h0zM22,22h1h0v0v1v0h0h-1h0v0v-1v0h0z" fill-rule="evenodd" fill-opacity="1" fill="rgb(0, 0, 0)"></path></svg>