<?xml version="1.0" encoding="utf-8"?>
<!-- Generator: Adobe Illustrator 25.4.1, SVG Export Plug-In . SVG Version: 6.00 Build 0)  -->
<svg version="1.1" id="Layer_1" xmlns="http://www.w3.org/2000/svg" xmlns:xlink="http://www.w3.org/1999/xlink" x="0px" y="0px"
	 viewBox="0 0 594.4 594.4" style="enable-background:new 0 0 594.4 594.4;" xml:space="preserve">
<style type="text/css">
	.st0{fill:#ED1C24;}
	.st1{fill:#FFFFFF;}
</style>
<path class="st0" d="M297.2,0.6C133.1,0.6,0,133.7,0,297.8C0,462,133.1,595,297.2,595S594.4,462,594.4,297.8S461.3,0.6,297.2,0.6z
	 M297.2,321.4c-13,0-23.5-10.5-23.5-23.5c0-13,10.5-23.5,23.5-23.5s23.5,10.5,23.5,23.5C320.7,310.8,310.2,321.4,297.2,321.4z"/>
<g>
	<path class="st1" d="M158.5,503.2c-1.7,2.4-3.9,2.6-5.9,2.3c1.7,2.4,2.3,4.8,0.4,7.4c-2.5,3.4-6.6,3.2-10.9,0.1l-8.9-6.4l13.9-19.2
		l8.6,6.2C159.6,496.5,160.7,500.2,158.5,503.2z M150,510.2c1.2-1.6,0.6-3.5-2.1-5.5l-5.3-3.9l-3.8,5.3l5.6,4
		C146.7,511.8,148.7,511.9,150,510.2z M154.8,501.3c1.1-1.6,0.6-3.3-1.6-4.9l-4.8-3.5l-3.7,5.1l4.6,3.3
		C151.4,502.9,153.5,503.1,154.8,501.3z"/>
	<path class="st1" d="M177.4,523.1c-3.5,6.1-8.8,7.2-14.1,4.1c-5.3-3.1-6.9-8.1-3.5-14.1l6.8-11.8l3.6,2.1l-6.7,11.6
		c-2.2,3.8-1.4,7,1.8,8.8c3.2,1.8,6.3,1.1,8.5-2.7l6.8-11.8l3.6,2.1L177.4,523.1z"/>
	<path class="st1" d="M189.5,540.1l-3.8-1.7l3.8-8.5l-2.7-16.9l4.5,2l1.7,12.3l10.4-6.8l4.3,2l-14.4,9.1L189.5,540.1z"/>
	<path class="st1" d="M216.8,544.3c-1.4-0.5-2.2-2-1.8-3.5c0.5-1.4,2-2.2,3.5-1.8c1.4,0.5,2.3,2,1.8,3.5
		C219.8,544,218.3,544.7,216.8,544.3z"/>
	<path class="st1" d="M246.2,544c4.6,2.2,6.8,4.5,6,8.4c-0.9,4.4-4.9,6.2-9.8,5.2c-3.5-0.8-6.6-2.7-8.9-5.8l3.1-2.4
		c1.8,2.4,3.8,4,6.7,4.6c2.5,0.5,4.3-0.3,4.7-2.1c0.4-1.7-0.4-2.8-4.5-4.7c-4.7-2.2-7.1-4.3-6.2-8.6c0.9-4,4.8-6,9.3-5
		c3.4,0.7,5.8,2.3,7.8,4.7l-2.8,2.6c-1.7-2-3.7-3.3-5.8-3.7c-2.4-0.5-4,0.4-4.4,2C241.1,541,242,542,246.2,544z"/>
	<path class="st1" d="M277.4,542.5l-13.3-1.6l-0.8,6.1l11.8,1.5l-0.5,3.7l-11.8-1.5l-0.8,6.3l13.5,1.7l-0.5,3.7l-17.6-2.2l2.9-23.5
		l17.4,2.2L277.4,542.5z"/>
	<path class="st1" d="M282.8,539.1l4.2,0.1l-0.7,19.9l12.4,0.4l-0.1,3.8l-16.6-0.6L282.8,539.1z"/>
	<path class="st1" d="M303.5,539.6l4.2-0.2l1,19.8l12.4-0.6l0.2,3.8l-16.6,0.8L303.5,539.6z"/>
	<path class="st1" d="M338.7,554.2c-1.5,0.2-2.9-0.8-3.1-2.3c-0.2-1.5,0.8-2.9,2.3-3.1c1.5-0.2,2.9,0.8,3.2,2.3
		C341.2,552.6,340.2,554,338.7,554.2z"/>
	<path class="st1" d="M364.7,554.9l-4.1,1l-4.7-19.2l-7.3,1.8l-0.9-3.7l18.6-4.6l0.9,3.7l-7.3,1.8L364.7,554.9z"/>
	<path class="st1" d="M392.5,546.3l-8.2-5.9l-4.9,1.7l2.7,7.8l-3.9,1.4l-7.8-22.3l10-3.5c5.1-1.8,9.2-0.2,10.8,4.2
		c1.3,3.7-0.1,6.7-3,8.7l9,6.4L392.5,546.3z M381.2,529.1l-5.7,2l2.6,7.5l5.7-2c2.8-1,4.1-3.1,3.3-5.4
		C386.3,528.8,384.1,528.1,381.2,529.1z"/>
	<path class="st1" d="M423.7,532.5l-4,1.9l-4.6-4.1L405,535l0.2,6.2l-3.9,1.8l-0.7-26l3.5-1.6L423.7,532.5z M404.4,520.7l0.4,10.3
		l7.4-3.5L404.4,520.7z"/>
	<path class="st1" d="M437,524.7l-7.5,4.7L417,509.2l7.5-4.7c6.3-3.9,13.4-2.3,16.9,3.4C444.9,513.6,443.3,520.7,437,524.7z
		 M426.5,507.8l-4,2.5l8.5,13.7l4-2.5c4.2-2.6,5.2-7.2,2.7-11.1C435.3,506.3,430.7,505.2,426.5,507.8z"/>
	<path class="st1" d="M455.5,487.6l-10.7,8l3.7,4.9l9.5-7.1l2.2,3l-9.5,7.1l3.8,5.1l10.8-8.1l2.2,3l-14.2,10.6l-14.2-18.9l14-10.5
		L455.5,487.6z"/>
</g>
<g>
	<path class="st1" d="M221.3,263c0-4.5,0-54.2-0.8-65.7c-1.7-6.2-2.8-9.5-12.4-9.5h-9.5c-1.1,0-2-0.3-2-1.4v-8.1c0-1.4,0.3-2,2-2
		c3.1,0,13.5,0.8,44.4,0.8c27.5,0,37.3-0.8,41.6-0.8c1.7,0,2.2,0.6,2.2,2.2v7c0,1.7-0.6,2.2-2.2,2.2h-9.8c-7.6,0-10.1,2.2-10.4,7.6
		c-0.3,4.5-0.8,40.4-0.8,74.4v12.9c0,35.7-1.1,63.2-1.1,69.6c0,14.9-2,27-11.2,42.7c-12.6,21.3-35.9,42.4-68.5,42.4
		c-7.6,0-21.1-5.1-21.1-20.2c0-9.5,7-18,16.9-18c14,0,20.2,11.5,25.3,22.7c5.9,0,12.1-6.7,14.9-16.9c5.9-20.5,2.8-101.9,2.8-122.4
		V263z"/>
	<path class="st1" d="M335.9,263c0-4.5,0-54.2-0.8-65.7c-1.7-6.2-2.8-9.5-12.4-9.5h-9.5c-1.1,0-2-0.3-2-1.4v-8.1c0-1.4,0.3-2,2-2
		c3.1,0,13.5,0.8,44.4,0.8c27.5,0,37.3-0.8,41.6-0.8c1.7,0,2.2,0.6,2.2,2.2v7c0,1.7-0.6,2.2-2.2,2.2h-9.8c-7.6,0-10.1,2.2-10.4,7.6
		c-0.3,4.5-0.8,40.4-0.8,74.4v12.9c0,35.7-1.1,63.2-1.1,69.6c0,14.9-2,27-11.2,42.7c-12.6,21.3-35.9,42.4-68.5,42.4
		c-7.6,0-21.1-5.1-21.1-20.2c0-9.5,7-18,16.9-18c14,0,20.2,11.5,25.3,22.7c5.9,0,12.1-6.7,14.9-16.9c5.9-20.5,2.8-101.9,2.8-122.4
		V263z"/>
</g>
<g>
	<path class="st1" d="M104.4,297.6c0-4.3,3.1-8.4,8.5-8.4c4.4,0,8.2,3.2,8.2,8.4c0,4.3-3.4,8.3-8.4,8.3
		C108.6,305.8,104.4,302.7,104.4,297.6z M118.6,297.3c0-3.7-3.1-6.2-5.8-6.2c-4.1,0-5.8,3.7-5.8,6.1c0,4.3,3.2,6.5,6,6.5
		C116.5,303.8,118.6,300.9,118.6,297.3z"/>
	<path class="st1" d="M124.6,314.4c0-0.9,0.6-2.2,0.9-2.9c0.9-2.2,8.1-16.1,9.8-19.3h-7.2c-2.1,0-3.1,1.1-3.7,2
		c-0.3,0.4-0.4,0.5-0.8,0.5c-0.5,0-0.6-0.4-0.3-0.7c0.6-1,2.8-5.2,2.8-5.5c0.1-0.3,0.3-0.5,0.4-0.5c0.1,0,0.7,0.1,0.7,0.3
		c0,0.2-0.1,0.4-0.2,0.7c-0.2,0.6,0.4,0.7,1.2,0.7h9.5c0.5,0,0.5,0.3,0.3,0.6c-1.4,2.6-4.9,9.2-5.5,10.6c-0.3,0.6-4.4,9.5-5.2,11.8
		c-0.8,2.2-1.1,2.8-1.8,2.8C124.9,315.5,124.6,315,124.6,314.4z"/>
	<path class="st1" d="M140.7,296.4c0-8.3,7.2-14.3,10.9-15.9c0.2-0.1,0.7-0.3,0.9-0.3c0.2,0,0.5,0.2,0.5,0.5c0,0.3-0.1,0.4-0.3,0.5
		c-3.9,1.8-7.1,5.8-8.3,11.4h0.1c0.7-0.9,2.2-1.7,4.2-1.7c3.9,0,6.4,3.4,6.4,6.9c0,3.4-2.3,7.8-7.6,7.8
		C143.7,305.8,140.7,302.4,140.7,296.4z M152.1,297.6c0-2.7-1.6-5-4.1-5c-3.2,0-4.3,2.3-4.3,4.9c0,5.6,2,7.1,4.1,7.1
		C150.3,304.5,152.1,302.4,152.1,297.6z"/>
	<path class="st1" d="M167.3,302.9c0.9,0,1.5-0.6,1.8-0.9c0.3-0.3,1.1-1.2,1.4-1.6c0-0.1,0.1-0.1,0.2,0l0.5,0.3c0.1,0.1,0,0.2,0,0.2
		c-0.2,0.4-1.8,3.3-2.3,5c-0.1,0.5-0.3,0.5-0.6,0.5c-0.3,0-0.3-0.1-0.4-0.6c0-0.4-0.2-0.5-0.6-0.5h-8.9c-0.4,0-0.6-0.2-0.6-0.5
		c0-0.3,0.2-0.6,0.6-0.8c6.2-5,7.8-6.3,7.8-9.7c0-1.2-1.5-2.8-3-2.8c-1.1,0-3.1,1.1-3.7,3.1c-0.1,0.5-0.3,0.5-0.8,0.5
		c-0.3,0-0.5-0.1-0.4-0.6c0.2-0.9,0.8-2.2,1.8-3.3c1.2-1.3,3.4-2,4.4-2c2.4,0,4.6,2.5,4.6,4.1c0,4.6-5.5,8.3-7.4,9.6v0.1
		L167.3,302.9L167.3,302.9z"/>
	<path class="st1" d="M184.8,305.3v6.7c0,0.4-0.2,0.5-0.4,0.5h-1.8c-0.3,0-0.4-0.1-0.4-0.7v-6.5h-8.9c-0.4,0-0.6-0.1-0.6-0.3
		c0-0.2,0-0.3,0.3-0.6c0.2-0.2,10.7-14.3,11.1-14.9c0.3-0.4,0.4-0.5,0.7-0.5c0.2,0,0.5,0.2,0.3,0.9c-0.2,0.9-0.3,4.8-0.3,7.3v6.1
		h4.3c0.2,0,0.4,0.1,0.4,0.5v1.1c0,0.4-0.2,0.5-0.5,0.5L184.8,305.3L184.8,305.3z M182.2,294.4L182.2,294.4l-6.8,8.9h6.8V294.4z"/>
</g>
<g>
	<path class="st1" d="M414.1,294.8c0.2,0,3.1-0.1,3.5-0.2c0.8-0.1,1-0.4,1.3-1.2c0.1-0.3,0.2-0.8,0.2-1.3c0-0.1,0.1-0.2,0.2-0.2
		l0.7,0c0.1,0,0.2,0.1,0.2,0.2c-0.1,0.5-0.1,2.7-0.1,3.1c0,1,0.1,2.3,0.2,2.8c0,0.1-0.1,0.2-0.2,0.2l-0.6,0.1
		c-0.1,0-0.2-0.1-0.2-0.2c-0.1-0.4-0.2-1-0.3-1.3c-0.2-0.6-0.5-1-1.2-1.1c-1.3-0.1-3.2-0.1-3.6-0.1v1.7c0,1.5,0.1,4.1,0.1,4.7
		c0,1.4,0.7,2,1.6,2.1c0.5,0.1,1.3,0.2,2,0.2c0.5,0,1.8,0,2.4-0.1c0.5-0.1,1.7-0.4,2.4-1c0.3-0.3,1.9-2.2,2.2-2.9
		c0.1-0.1,0.2-0.2,0.3-0.2l0.4,0.2c0.1,0.1,0.1,0.2,0.1,0.4l-1.4,4c-0.1,0.2-0.3,0.4-0.6,0.4c-0.3,0-2.4-0.1-10.9-0.1
		c-2,0-3,0.1-3.5,0.1c-0.2,0-0.2-0.1-0.2-0.2v-0.7c0-0.1,0.1-0.1,0.3-0.1h1.1c1.3,0,1.4-0.2,1.4-1.2v-6.5V294c0-2.3-0.1-5.7-0.1-6
		c-0.1-0.9-0.4-1.1-1.4-1.1h-1c-0.1,0-0.2,0-0.2-0.2V286c0-0.1,0.1-0.1,0.2-0.1c0.6,0,1.6,0.1,3.4,0.1h1.2c2.7,0,5.4,0,8.1,0
		c0.4,0,1-0.1,1.1-0.1s0.2,0.1,0.2,0.1c0.1,0.4,1.3,4.1,1.4,4.4c0,0.1,0,0.2-0.1,0.2l-0.4,0.2c-0.1,0.1-0.2,0-0.2-0.1
		c-0.1-0.1-2.1-2.7-2.7-3.1c-0.6-0.4-1.3-0.7-2.1-0.7l-4.9-0.1L414.1,294.8L414.1,294.8z"/>
	<path class="st1" d="M428.3,304.8c-0.1-0.1-0.1-0.2-0.2-0.4l-0.5-2.6c0-0.1,0.1-0.2,0.2-0.2l0.4-0.1c0.1,0,0.2,0,0.2,0.2l0.7,1.3
		c0.5,1,0.9,1.7,2.4,1.7c1,0,2.2-0.6,2.2-1.9c0-1.2-0.6-1.9-2.6-2.5c-1.6-0.5-3.2-1.3-3.2-3.5c0-1.9,1.8-3.3,3.8-3.3
		c1.3,0,2,0.3,2.5,0.6c0.4,0.2,0.5,0.3,0.5,0.5l0.4,1.9c0,0.1-0.1,0.2-0.2,0.2l-0.3,0.1c-0.1,0-0.2,0-0.2-0.1l-0.9-1.3
		c-0.3-0.5-0.8-1.1-1.9-1.1c-1,0-2.1,0.6-2.1,1.8c0,1.6,1.3,1.9,2.6,2.3c2,0.6,3.2,1.4,3.3,3.5c0,2.2-1.8,3.6-4.1,3.6
		C429.7,305.6,428.6,305.1,428.3,304.8z"/>
	<path class="st1" d="M440.8,301.9c0,2,0.9,2.4,1.4,2.4c0.6,0,1.4-0.1,1.8-0.4c0.1-0.1,0.2-0.1,0.3,0.1l0.1,0.2
		c0.1,0.1,0,0.2-0.1,0.3c-0.3,0.3-1.4,1.1-3,1.1c-1.3,0-2.6-1.3-2.6-2.3c0-1.1,0.1-3.5,0.1-3.9v-0.6c0-0.5,0-2.3,0.1-3.5h-1.7
		c-0.2,0-0.4-0.1-0.4-0.3s0.2-0.3,0.5-0.5c0.7-0.4,2.8-2.5,3.1-3.4c0.1-0.2,0.2-0.3,0.4-0.3c0.2,0,0.3,0.2,0.3,0.4l-0.1,2.7h3.8
		c0.2,0,0.2,0.1,0.2,0.2l-0.3,1c0,0.1-0.1,0.2-0.2,0.2h-3.5c-0.1,1.3-0.1,2.6-0.1,3.8L440.8,301.9L440.8,301.9z"/>
	<path class="st1" d="M446.8,304c0-0.5,0.3-1.5,1.7-1.5c0.8,0,1.5,0.6,1.5,1.6c0,0.9-0.7,1.5-1.5,1.5
		C447.9,305.6,446.8,305.3,446.8,304z"/>
	<path class="st1" d="M472.5,302.9c0.9,0,1.5-0.6,1.8-0.9c0.3-0.3,1.1-1.2,1.4-1.6c0-0.1,0.1-0.1,0.2,0l0.5,0.3c0.1,0.1,0,0.2,0,0.2
		c-0.2,0.4-1.8,3.3-2.3,5c-0.1,0.5-0.3,0.5-0.6,0.5c-0.3,0-0.3-0.1-0.4-0.6c0-0.4-0.2-0.5-0.6-0.5h-8.9c-0.4,0-0.6-0.2-0.6-0.5
		c0-0.3,0.2-0.6,0.6-0.8c6.2-5,7.8-6.3,7.8-9.7c0-1.2-1.5-2.8-3-2.8c-1.1,0-3.1,1.1-3.7,3.1c-0.2,0.5-0.3,0.5-0.8,0.5
		c-0.3,0-0.5-0.1-0.4-0.6c0.2-0.9,0.8-2.2,1.8-3.3c1.2-1.3,3.4-2,4.4-2c2.4,0,4.6,2.5,4.6,4.1c0,4.6-5.5,8.3-7.4,9.6v0.1
		L472.5,302.9L472.5,302.9z"/>
	<path class="st1" d="M479.2,297.5c0-4.3,3.1-8.4,8.5-8.4c4.4,0,8.2,3.2,8.2,8.4c0,4.3-3.4,8.3-8.4,8.3
		C483.3,305.7,479.2,302.7,479.2,297.5z M493.3,297.3c0-3.7-3.1-6.2-5.8-6.2c-4.1,0-5.8,3.7-5.8,6.1c0,4.3,3.2,6.5,6,6.5
		C491.2,303.7,493.3,300.8,493.3,297.3z"/>
	<path class="st1" d="M508.7,302.9c0.9,0,1.5-0.6,1.8-0.9c0.3-0.3,1.1-1.2,1.4-1.6c0-0.1,0.1-0.1,0.2,0l0.5,0.3c0.1,0.1,0,0.2,0,0.2
		c-0.2,0.4-1.8,3.3-2.3,5c-0.1,0.5-0.3,0.5-0.6,0.5c-0.3,0-0.3-0.1-0.4-0.6c0-0.4-0.2-0.5-0.6-0.5h-8.9c-0.4,0-0.6-0.2-0.6-0.5
		c0-0.3,0.2-0.6,0.6-0.8c6.2-5,7.8-6.3,7.8-9.7c0-1.2-1.5-2.8-3-2.8c-1.1,0-3.1,1.1-3.7,3.1c-0.2,0.5-0.3,0.5-0.8,0.5
		c-0.3,0-0.5-0.1-0.4-0.6c0.2-0.9,0.8-2.2,1.8-3.3c1.2-1.3,3.4-2,4.4-2c2.4,0,4.6,2.5,4.6,4.1c0,4.6-5.5,8.3-7.4,9.6v0.1
		L508.7,302.9L508.7,302.9z"/>
	<path class="st1" d="M518.4,295.4c0-1.2,0-2.8,0-3.1c-0.1-1-0.5-1.5-1.8-1.5h-1.5c-0.1,0-0.2,0-0.2-0.2v-0.9c0-0.2,0.1-0.3,0.3-0.3
		c0.4,0,4,0.1,4.7,0.1c0.9,0,4.1-0.1,4.4-0.1c0.3,0,0.3,0,0.3,0.2v0.9c0,0.2-0.1,0.3-0.3,0.3h-1.7c-1,0-1.5,0.3-1.5,1.5
		c0,0.5-0.1,2-0.1,3.8v1.7c0,1.4,0,4.1,0,4.6c0,1.2,0.8,1.6,2,1.6h1.4c0.2,0,0.2,0.1,0.2,0.2v0.8c0,0.2-0.1,0.3-0.3,0.3
		c-0.3,0-3.7-0.1-4.5-0.1c-0.9,0-4.4,0.1-4.7,0.1c-0.2,0-0.3-0.1-0.3-0.2v-0.9c0-0.2,0.1-0.2,0.3-0.2h1c0.9,0,1.8-0.3,2-1.5
		c0.2-0.6,0.2-3.8,0.2-5.6L518.4,295.4L518.4,295.4z"/>
</g>
<g>
	<path class="st1" d="M42.8,224.1l1.3-4.9l23.1,17.5l-1,4l-28.7,3.9l1.3-5l21.8-2.6L42.8,224.1z"/>
	<path class="st1" d="M47.9,208.8l25.1,8.8l-1.5,4.4l-25.1-8.8L47.9,208.8z"/>
	<path class="st1" d="M58.5,183.5l1.9-4.2l24.3,10.9l-1.6,3.6l-23.3,5.6l17.3,7.8l-1.9,4.2l-24.3-10.9l1.8-4l22.6-5.5L58.5,183.5z"
		/>
	<path class="st1" d="M94,174l-2.4,4l-9-5.4l-19.3,0.8l2.8-4.7l13.9-0.4l-6.3-12.5l2.7-4.6l8.3,17.3L94,174z"/>
	<path class="st1" d="M80.2,146.3l2.8-3.7l17.9,13.4l8.4-11.2l3.4,2.5l-11.2,14.9L80.2,146.3z"/>
	<path class="st1" d="M134.9,123.8l-11.2-2l-4.2,4.1l6.5,6.6l-3.3,3.3l-18.7-18.9l8.4-8.3c4.4-4.3,9.3-4.6,13-0.9
		c3.1,3.1,3.1,6.9,1.2,10.2l12.2,2.1L134.9,123.8z M115.2,111.8l-4.8,4.8l6.3,6.4l4.9-4.8c2.4-2.3,2.7-5.1,0.8-7
		C120.2,109,117.7,109.3,115.2,111.8z"/>
	<path class="st1" d="M143.6,87.4l-11.8,9.4l4.3,5.4l10.5-8.3l2.6,3.3l-10.5,8.3l4.4,5.6l11.9-9.5l2.6,3.3l-15.6,12.4l-16.5-20.9
		L141,84.1L143.6,87.4z"/>
	<path class="st1" d="M172.4,95.8c-6.6,4.1-14.7,2.1-18.8-4.4c-4.1-6.4-2.6-14.7,4.3-19c4.1-2.6,7.6-2.7,11-2l-0.7,4.5
		c-2.9-0.5-5.5-0.4-8.1,1.2c-4.3,2.7-5.2,8.2-2.4,12.7c2.8,4.4,8.2,6.1,12.5,3.4c2.8-1.7,3.8-4,4.6-7l4.2,1
		C178.2,90,176.6,93.2,172.4,95.8z"/>
	<path class="st1" d="M195.9,83c-7.4,3.5-15.2,0.4-18.4-6.4c-3.2-6.8-0.7-14.9,6.7-18.5c7.4-3.5,15.2-0.4,18.4,6.4
		C205.8,71.3,203.3,79.5,195.9,83z M185.9,62c-4.8,2.3-6.3,7.7-4,12.4c2.2,4.7,7.5,7,12.3,4.7c4.8-2.3,6.3-7.7,4-12.4
		C195.9,62,190.7,59.7,185.9,62z"/>
	<path class="st1" d="M229.1,69.5l-9.1-6.7l-5.5,1.9l2.9,8.8l-4.4,1.5l-8.4-25.2l11.2-3.8c5.8-1.9,10.4-0.1,12,4.9
		c1.4,4.2-0.2,7.5-3.4,9.7l10,7.3L229.1,69.5z M216.7,50.1l-6.4,2.2l2.8,8.5l6.5-2.2c3.2-1.1,4.6-3.4,3.8-6
		C222.4,49.8,220,49,216.7,50.1z"/>
	<path class="st1" d="M248.1,64.7l-9.7,2l-5.4-26l9.7-2c8.2-1.7,15,2.7,16.6,10.1C260.7,56.1,256.3,63,248.1,64.7z M243.5,42.8
		l-5.1,1.1l3.7,17.7l5.1-1.1c5.5-1.1,8.3-5.6,7.2-10.7C253.3,44.7,249,41.7,243.5,42.8z"/>
	<path class="st1" d="M275.2,44.9c5.7,0.8,8.8,2.5,9.3,7c0.5,5-3.1,8.3-8.7,8.9c-4,0.4-8-0.6-11.5-3.2l2.5-3.6
		c2.7,1.9,5.4,2.9,8.7,2.6c2.9-0.3,4.6-1.8,4.4-3.8c-0.2-1.9-1.3-2.8-6.4-3.5c-5.8-0.8-9.1-2.2-9.6-7.1c-0.5-4.6,3-8.1,8.3-8.6
		c3.9-0.4,7,0.5,9.9,2.4l-2.2,3.8c-2.6-1.5-5-2.3-7.5-2c-2.7,0.3-4.2,1.8-4,3.6C268.7,43.4,270,44.2,275.2,44.9z"/>
	<path class="st1" d="M319.6,60.6l-3.3-3.8c-2.4,2-5.1,3.2-8.3,3c-4.9-0.3-8.5-3.4-8.3-8.1c0.2-3.5,2.3-5.8,6-7.2
		c-1.4-2.1-2-3.7-1.9-5.7c0.2-3.6,3.2-6.6,8-6.3c4.2,0.2,6.9,3.2,6.7,6.8c-0.2,3.5-2.6,5.5-6.2,6.6l4.3,4.9c1.1-1.5,2.1-3.2,3.1-5
		l3.4,2c-1.2,2.1-2.5,4.1-3.9,5.9l4,4.5L319.6,60.6z M308.1,47.6c-2.5,0.9-3.7,2.5-3.8,4.3c-0.1,2.3,1.7,4,4.2,4.1
		c1.8,0.1,3.5-0.7,5.1-2.1L308.1,47.6z M311.4,36.2c-1.9-0.1-3.2,1.2-3.3,3.1c-0.1,1.4,0.4,2.4,1.8,4.1c2.8-0.8,4.3-2,4.4-4
		C314.4,37.6,313.2,36.3,311.4,36.2z"/>
	<path class="st1" d="M349.9,65.3c-7.6-1.6-12-8.7-10.4-16.2c1.6-7.4,8.4-12.3,16.3-10.7c4.8,1,7.3,3.3,9.3,6.2l-3.6,2.8
		c-1.7-2.4-3.6-4.1-6.6-4.8c-5-1.1-9.5,2.3-10.5,7.4s1.6,10.1,6.6,11.1c3.2,0.7,5.5-0.2,8.2-1.8l2.3,3.6
		C358.1,65.2,354.8,66.3,349.9,65.3z"/>
	<path class="st1" d="M375.7,72.5C368,69.9,364.5,62.2,367,55c2.4-7.1,9.9-11.2,17.6-8.6c7.7,2.6,11.1,10.3,8.7,17.4
		C390.9,71,383.4,75.1,375.7,72.5z M383.1,50.5c-5-1.7-9.8,1.1-11.5,6c-1.7,4.9,0.5,10.2,5.5,11.9c5,1.7,9.8-1.1,11.5-6
		S388.1,52.2,383.1,50.5z"/>
	<path class="st1" d="M404.9,54.6l4.2,2l-9.5,20.2l12.7,5.9l-1.8,3.9l-16.9-7.9L404.9,54.6z"/>
	<path class="st1" d="M427.7,65.8l4,2.4l-11.4,19.2l12,7.1l-2.2,3.7l-16-9.5L427.7,65.8z"/>
	<path class="st1" d="M462.9,94.2l-12.1-8.9l-4.1,5.6l10.7,7.9l-2.5,3.4l-10.7-7.9l-4.2,5.8l12.3,9l-2.5,3.4l-16-11.8l15.8-21.4
		l15.9,11.7L462.9,94.2z"/>
	<path class="st1" d="M462.3,124.2c-5.7-5.3-5.9-13.6-0.7-19.3c5.2-5.6,13.5-6.3,19.4-0.9c3.6,3.3,4.6,6.6,4.9,10.1l-4.6,0.5
		c-0.2-2.9-1-5.4-3.2-7.5c-3.7-3.4-9.3-2.9-12.8,1c-3.6,3.9-3.7,9.5,0,12.9c2.4,2.2,4.8,2.7,8,2.6l0.1,4.3
		C469.4,128.3,465.9,127.6,462.3,124.2z"/>
	<path class="st1" d="M480.7,142.8l-3.1-3.5l16.8-14.7l-5.6-6.3l3.3-2.9l14.2,16.2l-3.3,2.9l-5.6-6.3L480.7,142.8z"/>
	<path class="st1" d="M513.1,140.8l-21.3,16L489,153l21.3-16L513.1,140.8z"/>
	<path class="st1" d="M523.6,168.9c-2.8,1.8-5.2,1.1-7.1,0c0.8,3.2,0.4,6-2.7,7.9c-4,2.6-8.3,0.6-11.5-4.4l-6.6-10.4l22.5-14.2
		l6.4,10.1C527.6,162.4,527.2,166.7,523.6,168.9z M511.8,172.6c1.9-1.2,2.1-3.4,0.1-6.6l-4-6.3l-6.2,3.9l4.2,6.5
		C507.7,173,509.8,173.9,511.8,172.6z M520.5,165.4c1.8-1.2,2-3.2,0.4-5.8l-3.6-5.7l-6,3.8l3.4,5.4
		C516.3,165.6,518.4,166.7,520.5,165.4z"/>
	<path class="st1" d="M533.6,173l2.1,4.2l-20,10l6.2,12.5l-3.8,1.9l-8.3-16.7L533.6,173z"/>
	<path class="st1" d="M547.8,215.9l-5.4-14.1l-6.5,2.5l4.7,12.5l-3.9,1.5l-4.7-12.5l-6.7,2.5l5.4,14.2l-3.9,1.5l-7.1-18.6l24.9-9.5
		l7,18.4L547.8,215.9z"/>
	<path class="st1" d="M545.9,234.7c0.1,5.8-1.1,9.1-5.3,10.3c-4.8,1.3-8.7-1.7-10.2-7.1c-1.1-3.9-0.7-8,1.2-11.8l4,1.9
		c-1.5,3-2,5.8-1.2,9c0.7,2.8,2.5,4.2,4.5,3.7c1.9-0.5,2.6-1.8,2.4-6.9c-0.1-5.8,0.6-9.3,5.4-10.6c4.5-1.2,8.5,1.7,9.8,6.8
		c1,3.7,0.7,7-0.7,10.2l-4.1-1.5c1.1-2.8,1.4-5.3,0.8-7.7c-0.7-2.6-2.5-3.8-4.2-3.4C546.3,228.1,545.8,229.5,545.9,234.7z"/>
</g>
</svg>
