<svg version="1.1"
      xmlns="http://www.w3.org/2000/svg"
      xmlns:xlink="http://www.w3.org/1999/xlink"  id="snapshot-37445" width="300" height="300" viewBox="0 0 300 300"><desc>This image was made on Patterninja.com</desc><defs>
<!-- image 35715 -->
<g id="transformed-35715" data-image="35715" transform="translate(31.64, 28.009999999999998) rotate(0, 17, 20)"><g><svg version="1.1" width="34px" height="40px" viewBox="0 0 34 40"><g id="original-35715"><svg xmlns="http://www.w3.org/2000/svg" version="1.1" viewBox="0 0 1080 1280" xmlns:xlink="http://www.w3.org/1999/xlink" preserveAspectRatio="xMidYMid meet">
  <path d="M521 2.1c-30.6 4.8-54.4 13.2-59.3 21.1-1.2 1.9-1.7 11.6-2.6 52.8-.7 27.8-1.6 68.5-2.1 90.5s-1.4 60-2 84.5c-.6 24.5-1.5 62.3-2 84-.5 21.7-1.4 62.7-2 91-.7 28.3-1.5 57.3-1.8 64.3l-.7 12.8-159 81.5c-124.1 63.6-160.9 82-167.5 83.9-11.6 3.4-23.8 9.6-30.2 15.3-3.8 3.5-12.3 8.4-30.3 17.6-34.9 17.9-40.9 21.3-47.5 27.4C3.6 738.1.5 748 .6 771.5c0 11 .8 19.1 3.7 37.5 2 12.9 9 62 15.6 109 6.7 47 12.6 88 13.2 91 2.7 13 8.9 22.2 19.7 29.3 8.1 5.4 425.2 227 433.6 230.4 8.9 3.6 22.6 7 38 9.2 15.2 2.3 25.3 2.6 33.7 1.1 3-.5 9-1.4 13.4-2 10.3-1.4 24.8-5.3 32.8-8.8 3.4-1.4 26.5-13.5 51.2-26.8 209.3-112.1 366.2-196.3 371.9-199.7 16.9-9.8 22.6-19.5 22.6-38.7 0-8.7 26.8-207.2 29.1-215.7 1.2-4.6.8-17.3-1-28.5-2.4-15-7.6-22.9-20.4-31.4-3.9-2.7-101.1-51.7-215.8-109L633.2 514.2l-.6-17.3c-.4-9.6-1.1-37.2-1.6-61.4-.6-24.2-1.5-62.5-2-85-.5-22.6-1.4-60.1-2-83.5-.6-23.4-1.5-61-2-83.5-.5-22.6-1.4-61-2-85.5-1.2-56-1.9-74-3.1-76.1-2.6-5-19.9-12.1-38.4-15.9C554.8.5 537.9-.6 521 2.1zm-74.3 569.5c.3.9 0 27.8-.7 59.8-.8 31.9-1.4 64.8-1.4 73.1l-.1 14.9 8 5.8c15.9 11.4 34.7 19.6 54.8 24 13.7 3 45.3 3.2 59.2.4 24.8-5 50.9-16.8 67.9-30.9l3-2.4-.2-14.9c-.3-18.2-1.9-84.9-2.7-111.2-.6-16.7-.5-19.3.9-19.8 1.8-.7 16 2.4 33.1 7.2 54.7 15.2 99.3 39.1 129.5 69.4 34 34.2 46.3 72.5 36 112.5-2.7 10.5-12.3 30-19.9 40.3-37.4 50.8-116.3 88.8-208.6 100.6-43.9 5.6-95.4 5.1-139-1.4-51.6-7.6-101.5-24.5-139.3-47-31.9-19-58.7-45.8-71.6-71.8-14.8-29.6-15.4-62.6-1.6-92 18.5-39.4 61.4-74.3 119.5-97.1 22-8.7 30.4-11.2 66-19.9 5.8-1.4 6.5-1.4 7.2.4zM79.1 708.1c-.7 19.7 16.3 35.7 46.4 43.5 5.5 1.4 7.8 2.3 5.9 2.4-4.6 0-17.2-3.4-24.6-6.8-12.6-5.7-20.2-12-27.6-22.8-2.9-4.3-.2 6 3 11.4 11.5 19.2 45.3 31.6 77.3 28.3 33.2-3.5 57.4-19.2 61-39.7l.7-3.9-3.9 6c-7 10.6-22.9 21.1-37.9 24.9-8.5 2.2-11.4 1.9-3.4-.3 13.9-3.8 27.9-11.7 34.5-19.4 6.4-7.4 9-14.1 9-23 0-4.8.3-7.7 1-7.7 2 0 10.4 9.5 13.2 15 2.4 4.7 2.8 6.7 2.8 14 0 7.2-.4 9.3-2.7 14.1-1.5 3-5.5 8.2-8.8 11.5-36.5 36.1-127.1 32.9-156-5.5-10.4-13.8-8.9-31.4 3.8-44.4 2.5-2.6 5.1-4.6 5.6-4.4.5.2.8 3.2.7 6.8zm88.6 45.5c-.3.3-1.2.4-1.9.1-.8-.3-.5-.6.6-.6 1.1-.1 1.7.2 1.3.5zM206 833c.8.5 1.1 1 .5 1-.5 0-1.7-.5-2.5-1s-1-1-.5-1c.6 0 1.7.5 2.5 1zm14.8 6.1c5.3 2.3 19.8 8.6 32.2 14.1 132.1 58.6 216.6 92.3 263.5 105 14.5 3.9 30.3 4.8 42.5 2.3 38.5-7.7 100.4-31.8 217-84.5 46.3-20.9 76.2-34.1 76.7-33.7.4.4-13.8 7.2-129.7 61.9-50.3 23.8-120.6 59.3-138.4 70-21.4 12.9-22.6 14.9-27.6 47.6-5.5 36-9.8 119.8-10.1 198.7-.1 12.6-.5 24.1-.9 25.5-.7 2.1-.8 1.7-.9-2.2-.1-4.5-.9-24.4-3.1-74.8-4.3-98.6-12.5-163.1-22.8-179.9-2.2-3.6-5-5.8-14.2-11.3-23.3-14-110.6-56.2-240.5-116.3-37-17.2-54.5-25.5-54.5-26.1 0-.8 1.2-.4 10.8 3.7z" fill="rgba(0, 0, 0, 0.25)" stroke="none"/>
  <path d="M735.7 687.9c-9.1 25.8-35.2 51.8-68.9 68.7-37 18.5-76.6 27.4-122.8 27.4-46 0-85.9-8.9-122.9-27.3-26.2-13.1-45.9-29.7-59-49.7-5.2-7.9-12.1-22.1-12.1-24.9 0-.6-.4-1.1-1-1.1-1.5 0-1.2 12.1.6 20.8 3.9 18.9 13.5 35.7 29.8 51.7 22 21.8 55 39.1 92.5 48.5 9.9 2.4 16.6 3.7 34.6 6.5 1.7.3 10.8 1 20.2 1.5 91.9 5.5 178-31.5 204.8-88.1 4.2-9 7.2-20.5 8.1-30.9 1-11.4-.5-12.7-3.9-3.1z" fill="rgba(0, 0, 0, 0.25)" stroke="none"/>
  <path d="M277.5 699.5c-.5 2.7-.5 9.4-.2 14.9 2.1 32.9 20.1 65.6 51.2 92.3 42.1 36.4 103.1 60 173.5 67.5 18.9 2 67.9 1.7 86-.6 39.9-4.8 72.7-13.3 103.5-26.5 56.6-24.4 97.2-62.6 111.4-104.9 4.5-13.4 7.1-32.2 5.7-41.7-.9-5.5-1.7-5-3.4 2-1.8 7-11 25.5-17.4 34.7-18.5 26.7-44 47.6-80.3 65.9-48.1 24.2-102.5 36.2-164.5 36.3-61.1 0-113.8-11.5-162.5-35.4-51.8-25.4-86.6-60.6-99.5-100.7l-2.8-8.7-.7 4.9z" fill="rgba(0, 0, 0, 0.25)" stroke="none"/>
</svg>
</g></svg></g></g>
<!-- /image 35715 -->

<!-- image 01831 -->
<g id="transformed-01831" data-image="01831" transform="translate(126.25999999999999, 127.02000000000001) rotate(0, 17.5, 17.5)"><g><svg version="1.1" width="35px" height="35px" viewBox="0 0 35 35"><g id="original-01831"><svg xmlns="http://www.w3.org/2000/svg" viewBox="0 0 491.763 491.763" xmlns:xlink="http://www.w3.org/1999/xlink" version="1.1" preserveAspectRatio="xMidYMid meet">
  <path d="M292.516 221.259c-2.434-4.719-5.38-9.237-9.331-13.188-3.896-3.895-8.406-6.889-13.166-9.355-7.402-3.841-15.56-6.097-24.137-6.097-14.09 0-27.342 5.49-37.303 15.451-16.617 16.619-19.573 41.565-9.331 61.418 2.434 4.719 5.381 9.237 9.331 13.188 3.911 3.911 8.492 6.82 13.322 9.199 19.775 9.729 45.273 6.813 61.285-9.199 16.617-16.618 19.572-41.564 9.33-61.417zm-24.114 46.636c-6.214 6.221-14.372 9.331-22.521 9.331-8.149 0-16.307-3.11-22.519-9.331-12.443-12.435-12.443-32.607 0-45.042 6.213-6.221 14.37-9.331 22.519-9.331s16.307 3.11 22.521 9.331c12.441 12.435 12.441 32.607 0 45.042z" fill="rgba(0, 0, 0, 0.25)" stroke="none"/>
  <path d="M419.746 72.017C373.305 25.576 311.559 0 245.881 0 180.204 0 118.458 25.576 72.017 72.017 25.576 118.458 0 180.204 0 245.881s25.576 127.423 72.017 173.864 108.187 72.017 173.864 72.017 127.423-25.576 173.864-72.017 72.017-108.187 72.017-173.864c.001-65.677-25.576-127.423-72.016-173.864zM198.422 315.36c7.294 4.969 15.383 8.415 23.813 10.871l-44.233 114.593a205.11 205.11 0 0 1-66.706-38.346l87.126-87.118zM88.777 379.959a205.05 205.05 0 0 1-38.345-66.706l114.638-44.247c2.419 8.328 5.848 16.393 10.863 23.795l-87.156 87.158zm121.255-76.217c-4.533-2.792-8.856-5.948-12.714-9.806-3.895-3.896-7.046-8.211-9.814-12.706-16.229-26.456-13.072-61.535 9.814-84.42 12.972-12.972 30.219-20.118 48.563-20.118 12.894 0 25.149 3.709 35.849 10.312 4.534 2.792 8.858 5.948 12.714 9.806 3.897 3.895 7.045 8.211 9.813 12.706 16.23 26.456 13.072 61.535-9.813 84.42-12.97 12.972-30.218 20.118-48.563 20.118-12.892 0-25.149-3.709-35.849-10.312zm59.886-139.102l44.217-114.585a205.096 205.096 0 0 1 66.331 38.214l-87.126 87.118c-7.185-4.892-15.132-8.289-23.422-10.747zm45.911 33.306l87.158-87.158a205.168 205.168 0 0 1 38.213 66.325l-114.624 44.239c-2.417-8.188-5.808-16.12-10.747-23.406z" fill="rgba(0, 0, 0, 0.25)" stroke="none"/>
</svg>
</g></svg></g></g>
<!-- /image 01831 -->

<!-- image 45560 -->
<g id="transformed-45560" data-image="45560" transform="translate(217.91, 222.41) rotate(0, 25, 25)"><g><svg version="1.1" width="50px" height="50px" viewBox="0 0 50 50"><g id="original-45560"><svg xmlns="http://www.w3.org/2000/svg" viewBox="0 0 1024 1024" xmlns:xlink="http://www.w3.org/1999/xlink" version="1.1" preserveAspectRatio="xMidYMid meet">
  <path d="M528.913 762.024L331.78 853.382c-21.635 9.614-45.679 0-55.292-19.234L76.947 401.41c-9.614-21.635 0-45.679 19.234-55.292l206.753-96.161v52.891l-180.308 84.145 197.133 420.718 96.161-45.679h112.993z" fill="rgba(0, 0, 0, 0.25)" stroke="none"/>
  <path d="M548.145 240.337l-185.118-2.402-4.81 463.989h72.125l127.417 50.487-204.347-2.402c-24.044 0-40.869-19.234-40.869-43.272l4.81-476.011c0-24.044 19.234-40.869 43.272-40.869l211.562 2.402z" fill="rgba(0, 0, 0, 0.25)" stroke="none"/>
  <path d="M406.299 634.607l177.904-442.353c9.614-21.635 33.657-31.256 55.292-24.044l288.491 115.395c21.635 9.614 31.256 33.657 24.044 55.292L774.126 781.25c-9.614 21.635-33.657 31.256-55.292 24.044L430.343 689.899c-24.044-9.614-33.657-33.657-24.044-55.292zm497.653-307.725L625.074 216.294 451.978 646.626l278.878 110.588 173.096-430.332z" fill="rgba(0, 0, 0, 0.25)" stroke="none"/>
</svg>
</g></svg></g></g>
<!-- /image 45560 -->
</defs><rect x="0" y="0" width="300" height="300" fill="rgba(255, 255, 255, 0)"></rect><use xlink:href="#transformed-35715" transform="translate(-300, -300)"></use><use xlink:href="#transformed-35715" transform="translate(0, -300)"></use><use xlink:href="#transformed-35715" transform="translate(300, -300)"></use><use xlink:href="#transformed-35715" transform="translate(-300, 0)"></use><use xlink:href="#transformed-35715" transform="translate(0, 0)"></use><use xlink:href="#transformed-35715" transform="translate(300, 0)"></use><use xlink:href="#transformed-35715" transform="translate(-300, 300)"></use><use xlink:href="#transformed-35715" transform="translate(0, 300)"></use><use xlink:href="#transformed-35715" transform="translate(300, 300)"></use><use xlink:href="#transformed-01831" transform="translate(-300, -300)"></use><use xlink:href="#transformed-01831" transform="translate(0, -300)"></use><use xlink:href="#transformed-01831" transform="translate(300, -300)"></use><use xlink:href="#transformed-01831" transform="translate(-300, 0)"></use><use xlink:href="#transformed-01831" transform="translate(0, 0)"></use><use xlink:href="#transformed-01831" transform="translate(300, 0)"></use><use xlink:href="#transformed-01831" transform="translate(-300, 300)"></use><use xlink:href="#transformed-01831" transform="translate(0, 300)"></use><use xlink:href="#transformed-01831" transform="translate(300, 300)"></use><use xlink:href="#transformed-45560" transform="translate(-300, -300)"></use><use xlink:href="#transformed-45560" transform="translate(0, -300)"></use><use xlink:href="#transformed-45560" transform="translate(300, -300)"></use><use xlink:href="#transformed-45560" transform="translate(-300, 0)"></use><use xlink:href="#transformed-45560" transform="translate(0, 0)"></use><use xlink:href="#transformed-45560" transform="translate(300, 0)"></use><use xlink:href="#transformed-45560" transform="translate(-300, 300)"></use><use xlink:href="#transformed-45560" transform="translate(0, 300)"></use><use xlink:href="#transformed-45560" transform="translate(300, 300)"></use></svg>