<?xml version="1.0" encoding="utf-8" standalone="yes"?> <svg width="1000" height="1000" viewBox="-1 -1 39 39" xmlns="http://www.w3.org/2000/svg" shape-rendering="crispEdges" id="qr code"><rect id="qr background" fill-opacity="1" fill="rgb(255, 255, 255)" x="-1" y="-1" width="39" height="39"></rect><path fill-opacity="1" fill="rgb(0, 0, 0)" id="qr dark pixels" fill-rule="evenodd" d="M 10 0 L 11 0 L 11 2 L 10 2 z M 12 0 L 13 0 L 13 1 L 12 1 z M 14 0 L 15 0 L 15 1 L 16 1 L 16 2 L 14 2 z M 17 0 L 18 0 L 18 1 L 17 1 z M 19 0 L 20 0 L 20 1 L 19 1 z M 21 0 L 22 0 L 22 2 L 25 2 L 25 3 L 26 3 L 26 1 L 28 1 L 28 2 L 27 2 L 27 3 L 28 3 L 28 2 L 29 2 L 29 8 L 28 8 L 28 6 L 27 6 L 27 7 L 26 7 L 26 6 L 25 6 L 25 7 L 24 7 L 24 5 L 25 5 L 25 4 L 24 4 L 24 3 L 23 3 L 23 4 L 22 4 L 22 3 L 21 3 L 21 4 L 20 4 L 20 3 L 18 3 L 18 1 L 19 1 L 19 2 L 21 2 zM 26 4 L 28 4 L 28 5 L 26 5 z M 23 0 L 24 0 L 24 1 L 23 1 z M 28 0 L 29 0 L 29 1 L 28 1 z M 8 1 L 9 1 L 9 2 L 8 2 z M 12 2 L 13 2 L 13 3 L 14 3 L 14 4 L 12 4 z M 16 2 L 17 2 L 17 3 L 18 3 L 18 4 L 15 4 L 15 3 L 16 3 z M 8 3 L 11 3 L 11 4 L 10 4 L 10 6 L 9 6 L 9 7 L 8 7 L 8 5 L 9 5 L 9 4 L 8 4 z M 14 4 L 15 4 L 15 5 L 17 5 L 17 7 L 16 7 L 16 6 L 15 6 L 15 7 L 16 7 L 16 8 L 18 8 L 18 9 L 15 9 L 15 8 L 14 8 L 14 6 L 13 6 L 13 7 L 12 7 L 12 6 L 11 6 L 11 5 L 14 5 z M 18 4 L 20 4 L 20 5 L 18 5 z M 21 4 L 22 4 L 22 5 L 21 5 z M 23 4 L 24 4 L 24 5 L 23 5 z M 10 6 L 11 6 L 11 7 L 12 7 L 12 9 L 11 9 L 11 8 L 10 8 L 10 9 L 11 9 L 11 12 L 8 12 L 8 13 L 11 13 L 11 14 L 13 14 L 13 15 L 12 15 L 12 17 L 11 17 L 11 18 L 10 18 L 10 17 L 9 17 L 9 16 L 8 16 L 8 15 L 9 15 L 9 14 L 8 14 L 8 15 L 5 15 L 5 14 L 7 14 L 7 13 L 5 13 L 5 14 L 4 14 L 4 12 L 7 12 L 7 11 L 1 11 L 1 9 L 0 9 L 0 8 L 5 8 L 5 9 L 3 9 L 3 10 L 8 10 L 8 11 L 9 11 L 9 10 L 8 10 L 8 9 L 6 9 L 6 8 L 9 8 L 9 7 L 10 7 z M 18 6 L 19 6 L 19 7 L 20 7 L 20 8 L 18 8 z M 20 6 L 21 6 L 21 7 L 20 7 z M 22 6 L 23 6 L 23 7 L 22 7 z M 21 7 L 22 7 L 22 8 L 21 8 z M 23 7 L 24 7 L 24 8 L 23 8 z M 13 8 L 14 8 L 14 9 L 13 9 z M 25 8 L 27 8 L 27 9 L 26 9 L 26 10 L 23 10 L 23 9 L 25 9 z M 29 8 L 30 8 L 30 9 L 29 9 z M 31 8 L 32 8 L 32 9 L 31 9 z M 33 8 L 34 8 L 34 9 L 35 9 L 35 8 L 36 8 L 36 10 L 35 10 L 35 11 L 34 11 L 34 12 L 35 12 L 35 13 L 36 13 L 36 14 L 37 14 L 37 17 L 36 17 L 36 15 L 34 15 L 34 13 L 32 13 L 32 12 L 31 12 L 31 11 L 33 11 z M 12 9 L 13 9 L 13 10 L 12 10 z M 14 9 L 15 9 L 15 10 L 17 10 L 17 12 L 21 12 L 21 13 L 20 13 L 20 14 L 19 14 L 19 13 L 16 13 L 16 12 L 15 12 L 15 11 L 14 11 z M 18 9 L 21 9 L 21 10 L 18 10 z M 21 10 L 23 10 L 23 12 L 21 12 z M 26 10 L 30 10 L 30 11 L 27 11 L 27 12 L 31 12 L 31 13 L 29 13 L 29 15 L 30 15 L 30 16 L 31 16 L 31 17 L 29 17 L 29 16 L 28 16 L 28 17 L 25 17 L 25 16 L 26 16 L 26 15 L 24 15 L 24 14 L 23 14 L 23 15 L 22 15 L 22 16 L 21 16 L 21 17 L 20 17 L 20 15 L 21 15 L 21 13 L 23 13 L 23 12 L 26 12 zM 26 13 L 28 13 L 28 14 L 26 14 z M 36 10 L 37 10 L 37 11 L 36 11 z M 0 11 L 1 11 L 1 12 L 0 12 z M 12 11 L 13 11 L 13 12 L 14 12 L 14 13 L 12 13 z M 35 11 L 36 11 L 36 12 L 35 12 z M 36 12 L 37 12 L 37 13 L 36 13 z M 1 13 L 2 13 L 2 14 L 1 14 z M 14 13 L 15 13 L 15 14 L 16 14 L 16 15 L 17 15 L 17 16 L 16 16 L 16 17 L 15 17 L 15 15 L 14 15 z M 31 13 L 32 13 L 32 15 L 30 15 L 30 14 L 31 14 z M 0 14 L 1 14 L 1 15 L 0 15 z M 2 14 L 4 14 L 4 15 L 3 15 L 3 16 L 2 16 z M 18 15 L 19 15 L 19 17 L 17 17 L 17 16 L 18 16 z M 23 15 L 24 15 L 24 16 L 23 16 z M 33 15 L 34 15 L 34 16 L 35 16 L 35 17 L 36 17 L 36 18 L 37 18 L 37 21 L 36 21 L 36 22 L 37 22 L 37 25 L 36 25 L 36 26 L 37 26 L 37 28 L 36 28 L 36 27 L 34 27 L 34 26 L 35 26 L 35 25 L 34 25 L 34 24 L 36 24 L 36 23 L 34 23 L 34 22 L 35 22 L 35 21 L 34 21 L 34 20 L 36 20 L 36 19 L 34 19 L 34 17 L 32 17 L 32 16 L 33 16 z M 4 16 L 7 16 L 7 17 L 6 17 L 6 18 L 5 18 L 5 17 L 4 17 z M 13 16 L 14 16 L 14 17 L 13 17 z M 22 16 L 23 16 L 23 17 L 22 17 z M 0 17 L 1 17 L 1 19 L 0 19 z M 3 17 L 4 17 L 4 18 L 3 18 z M 7 17 L 9 17 L 9 18 L 10 18 L 10 20 L 11 20 L 11 22 L 14 22 L 14 21 L 15 21 L 15 22 L 16 22 L 16 23 L 17 23 L 17 24 L 18 24 L 18 23 L 17 23 L 17 22 L 19 22 L 19 24 L 20 24 L 20 26 L 19 26 L 19 25 L 17 25 L 17 26 L 18 26 L 18 27 L 16 27 L 16 29 L 15 29 L 15 27 L 14 27 L 14 25 L 15 25 L 15 26 L 16 26 L 16 25 L 15 25 L 15 23 L 12 23 L 12 25 L 10 25 L 10 24 L 11 24 L 11 23 L 10 23 L 10 24 L 9 24 L 9 25 L 6 25 L 6 24 L 8 24 L 8 23 L 9 23 L 9 22 L 7 22 L 7 21 L 8 21 L 8 20 L 9 20 L 9 19 L 8 19 L 8 18 L 7 18 z M 12 17 L 13 17 L 13 18 L 12 18 z M 14 17 L 15 17 L 15 18 L 16 18 L 16 17 L 17 17 L 17 20 L 16 20 L 16 21 L 15 21 L 15 19 L 14 19 z M 19 17 L 20 17 L 20 18 L 19 18 z M 21 17 L 22 17 L 22 19 L 23 19 L 23 20 L 21 20 L 21 21 L 20 21 L 20 20 L 19 20 L 19 21 L 17 21 L 17 20 L 18 20 L 18 19 L 20 19 L 20 18 L 21 18 z M 23 17 L 25 17 L 25 18 L 23 18 z M 28 17 L 29 17 L 29 18 L 28 18 z M 31 17 L 32 17 L 32 18 L 31 18 z M 2 18 L 3 18 L 3 19 L 2 19 z M 6 18 L 7 18 L 7 19 L 6 19 z M 25 18 L 26 18 L 26 19 L 25 19 z M 27 18 L 28 18 L 28 19 L 29 19 L 29 18 L 30 18 L 30 20 L 33 20 L 33 21 L 32 21 L 32 23 L 31 23 L 31 21 L 29 21 L 29 20 L 28 20 L 28 21 L 27 21 L 27 22 L 26 22 L 26 21 L 25 21 L 25 20 L 26 20 L 26 19 L 27 19 z M 1 19 L 2 19 L 2 20 L 3 20 L 3 22 L 2 22 L 2 23 L 1 23 L 1 22 L 0 22 L 0 21 L 1 21 z M 5 19 L 6 19 L 6 20 L 7 20 L 7 21 L 5 21 z M 7 19 L 8 19 L 8 20 L 7 20 z M 12 19 L 13 19 L 13 20 L 14 20 L 14 21 L 12 21 z M 24 19 L 25 19 L 25 20 L 24 20 z M 23 20 L 24 20 L 24 21 L 25 21 L 25 22 L 23 22 L 23 23 L 22 23 L 22 24 L 20 24 L 20 22 L 21 22 L 21 21 L 23 21 z M 16 21 L 17 21 L 17 22 L 16 22 z M 19 21 L 20 21 L 20 22 L 19 22 z M 28 21 L 29 21 L 29 22 L 30 22 L 30 23 L 31 23 L 31 24 L 32 24 L 32 23 L 33 23 L 33 25 L 32 25 L 32 27 L 31 27 L 31 25 L 30 25 L 30 24 L 28 24 L 28 23 L 27 23 L 27 22 L 28 22 z M 3 22 L 4 22 L 4 23 L 3 23 z M 6 22 L 7 22 L 7 23 L 6 23 z M 25 22 L 26 22 L 26 23 L 25 23 z M 5 23 L 6 23 L 6 24 L 5 24 z M 26 23 L 27 23 L 27 24 L 26 24 z M 1 24 L 3 24 L 3 25 L 1 25 z M 13 24 L 14 24 L 14 25 L 13 25 z M 25 24 L 26 24 L 26 26 L 28 26 L 28 25 L 29 25 L 29 26 L 30 26 L 30 28 L 29 28 L 29 27 L 27 27 L 27 28 L 26 28 L 26 27 L 25 27 L 25 26 L 22 26 L 22 25 L 25 25 z M 0 25 L 1 25 L 1 29 L 0 29 z M 4 25 L 6 25 L 6 26 L 4 26 z M 12 25 L 13 25 L 13 26 L 12 26 z M 2 26 L 3 26 L 3 27 L 4 27 L 4 29 L 3 29 L 3 28 L 2 28 z M 6 26 L 7 26 L 7 27 L 6 27 z M 9 26 L 10 26 L 10 28 L 11 28 L 11 30 L 13 30 L 13 31 L 12 31 L 12 33 L 11 33 L 11 31 L 10 31 L 10 30 L 9 30 L 9 31 L 8 31 L 8 28 L 7 28 L 7 27 L 9 27 z M 20 26 L 22 26 L 22 28 L 21 28 L 21 27 L 20 27 z M 12 27 L 13 27 L 13 28 L 14 28 L 14 29 L 12 29 z M 18 27 L 19 27 L 19 29 L 18 29 L 18 31 L 17 31 L 17 32 L 16 32 L 16 33 L 15 33 L 15 31 L 14 31 L 14 29 L 15 29 L 15 30 L 16 30 L 16 29 L 17 29 L 17 28 L 18 28 z M 6 28 L 7 28 L 7 29 L 6 29 z M 24 28 L 26 28 L 26 29 L 24 29 z M 27 28 L 28 28 L 28 30 L 27 30 L 27 31 L 26 31 L 26 29 L 27 29 z M 34 28 L 35 28 L 35 29 L 34 29 z M 19 29 L 21 29 L 21 30 L 19 30 z M 23 29 L 24 29 L 24 30 L 23 30 z M 21 30 L 23 30 L 23 31 L 24 31 L 24 32 L 21 32 L 21 33 L 20 33 L 20 32 L 19 32 L 19 31 L 21 31 z M 24 30 L 25 30 L 25 31 L 24 31 z M 34 30 L 37 30 L 37 31 L 34 31 z M 9 31 L 10 31 L 10 33 L 9 33 L 9 34 L 11 34 L 11 37 L 10 37 L 10 35 L 9 35 L 9 37 L 8 37 L 8 32 L 9 32 z M 33 31 L 34 31 L 34 32 L 36 32 L 36 33 L 37 33 L 37 37 L 34 37 L 34 36 L 36 36 L 36 35 L 33 35 L 33 34 L 34 34 L 34 33 L 33 33 z M 17 32 L 18 32 L 18 33 L 17 33 z M 24 32 L 26 32 L 26 33 L 24 33 z M 27 32 L 28 32 L 28 33 L 31 33 L 31 34 L 30 34 L 30 35 L 29 35 L 29 34 L 28 34 L 28 35 L 26 35 L 26 33 L 27 33 z M 12 33 L 14 33 L 14 34 L 16 34 L 16 35 L 14 35 L 14 36 L 13 36 L 13 37 L 12 37 L 12 35 L 13 35 L 13 34 L 12 34 z M 16 33 L 17 33 L 17 34 L 16 34 z M 18 33 L 20 33 L 20 34 L 19 34 L 19 35 L 17 35 L 17 34 L 18 34 z M 22 33 L 24 33 L 24 34 L 22 34 z M 32 33 L 33 33 L 33 34 L 32 34 z M 21 34 L 22 34 L 22 36 L 20 36 L 20 35 L 21 35 z M 31 34 L 32 34 L 32 35 L 31 35 z M 24 35 L 25 35 L 25 36 L 24 36 z M 28 35 L 29 35 L 29 36 L 28 36 z M 30 35 L 31 35 L 31 37 L 29 37 L 29 36 L 30 36 z M 14 36 L 18 36 L 18 37 L 14 37 z M 22 36 L 23 36 L 23 37 L 22 37 z M 25 36 L 26 36 L 26 37 L 25 37 z"></path><path id="qr squares" d="M0,0h7h0v0v7v0h0h-7h0v0v-7v0h0zM1,1h5h0v0v5v0h0h-5h0v0v-5v0h0zM2,2h3h0v0v3v0h0h-3h0v0v-3v0h0z M30,0h7h0v0v7v0h0h-7h0v0v-7v0h0zM31,1h5h0v0v5v0h0h-5h0v0v-5v0h0zM32,2h3h0v0v3v0h0h-3h0v0v-3v0h0z M0,30h7h0v0v7v0h0h-7h0v0v-7v0h0zM1,31h5h0v0v5v0h0h-5h0v0v-5v0h0zM2,32h3h0v0v3v0h0h-3h0v0v-3v0h0zM28,28h5h0v0v5v0h0h-5h0v0v-5v0h0zM29,29h3h0v0v3v0h0h-3h0v0v-3v0h0zM30,30h1h0v0v1v0h0h-1h0v0v-1v0h0z" fill-rule="evenodd" fill-opacity="1" fill="rgb(0, 0, 0)"></path></svg>